<?xml version="1.0" encoding="UTF-8" standalone="no"?>
<!-- Created with Inkscape (http://www.inkscape.org/) -->

<svg
   xmlns:dc="http://purl.org/dc/elements/1.1/"
   xmlns:cc="http://creativecommons.org/ns#"
   xmlns:rdf="http://www.w3.org/1999/02/22-rdf-syntax-ns#"
   xmlns:svg="http://www.w3.org/2000/svg"
   xmlns="http://www.w3.org/2000/svg"
   xmlns:xlink="http://www.w3.org/1999/xlink"
   version="1.1"
   width="800px"
   height="1280px"
   viewbox="0 0 800 1280"
   id="svg3352">
  <defs
     id="defs3356">
    <linearGradient
       id="linearGradient3455">
      <stop
         id="stop3457"
         style="stop-color:#01669a;stop-opacity:1"
         offset="0" />
      <stop
         id="stop3459"
         style="stop-color:#000000;stop-opacity:1"
         offset="1" />
    </linearGradient>
    <linearGradient
       id="linearGradient3420">
      <stop
         id="stop3422"
         style="stop-color:#020469;stop-opacity:1"
         offset="0" />
      <stop
         id="stop3424"
         style="stop-color:#9ac8fc;stop-opacity:1"
         offset="1" />
    </linearGradient>
    <linearGradient
       x1="116.61017"
       y1="-5.4237294"
       x2="116.61017"
       y2="829.83051"
       id="linearGradient3426"
       xlink:href="#linearGradient3420"
       gradientUnits="userSpaceOnUse" />
    <linearGradient
       x1="80.761902"
       y1="827.42859"
       x2="80.761902"
       y2="1744.4556"
       id="linearGradient3461"
       xlink:href="#linearGradient3455"
       gradientUnits="userSpaceOnUse" />
  </defs>
  <g
     id="g3380">
    <path
       d="m 0,640.00006 c 87.70475,42.63683 190.66737,54.60092 284.74159,26.78318 43.1187,-9.99446 82.60938,-33.06786 126.61277,-39.00704 32.8591,-1.11073 33.44876,40.22916 33.03724,63.89918 -1.37517,65.37496 -15.59607,129.77033 -23.29585,194.28881 6.88115,91.44619 16.45155,182.82991 33.7263,272.93941 -2.75761,26.72 -24.87888,47.2435 -33.53702,72.4932 -12.68052,14.1021 -9.55592,50.8371 -32.41836,48.6032 C 259.24445,1280 129.62222,1280 0,1280 0,1066.6667 0,853.33337 0,640.00006 z"
       id="path3392"
       style="fill:url(#linearGradient3461);fill-opacity:1" />
    <path
       d="m 0,1272.6058 c 0,-7.0178 0.1145,-7.3914 2.25,-7.3391 1.2375,0.03 12.375,-2.5064 24.75,-5.6373 21.3365,-5.3982 23.8962,-6.3132 49.5,-17.6944 l 27,-12.0017 16.6191,-12.8484 c 9.1405,-7.0666 25.5655,-19.4734 36.5,-27.5707 l 19.8809,-14.7224 14.3778,-17.6459 c 7.9079,-9.7053 27.2008,-34.0079 42.8732,-54.0059 25.6524,-32.7325 29.5907,-38.2696 39.4745,-55.5 30.3129,-52.844 38.7197,-69.37921 72.999,-143.57961 18.6909,-40.45823 34.2142,-74.57297 34.4961,-75.81047 l 0.5125,-2.25 105.76445,-95.2381 15.85959,-120.38095 c 0,0 123.80301,-174.12846 138.62396,-143.71135 0.8146,1.16303 7.8202,19.15066 15.5679,39.9725 17.444,46.88068 16.9807,45.82403 20.6535,47.10436 3.1994,1.11533 8.3384,-0.38565 9.8843,-2.88701 0.4548,-0.73592 6.5142,-16.78101 13.4653,-35.65575 6.951,-18.87475 13.001,-34.31717 13.4444,-34.31651 0.4434,6.7e-4 5.906,13.86382 12.1391,30.80701 6.2332,16.94319 12.0698,32.76413 12.9703,35.15763 2.1497,5.71385 6.6254,7.91402 11.7464,5.77433 3.7814,-1.58001 3.3552,-0.60736 20.7557,-47.36223 5.1656,-13.87984 9.673,-25.24234 10.0165,-25.25 0.3434,-0.008 2.3306,4.59857 4.416,10.23607 6.2352,16.85614 9.58586,20.21644 13.49156,18.71772 C 800.05057,506.46997 800,551.09756 800,893.89296 L 800,1280 l -400,0 -400,0 z"
       id="path3384"
       style="fill:#996500" />
    <path
       d="M 0,413 0,0 l 400,0 400,0 0,44.475 0,44.475 -3.02097,-0.604194 c -3.8662,-0.77324 -13.07669,4.706125 -19.55796,11.635126 -5.70949,6.103898 -9.44705,7.773058 -13.84463,6.182868 -4.36871,-1.57974 -10.0949,-1.46417 -13.4513,0.27149 -4.82553,2.49537 -14.81682,19.03612 -19.80293,32.78406 -6.15955,16.9834 -9.88252,29.11821 -11.28435,36.78065 -0.65403,3.575 -1.59318,8.525 -2.087,11 -0.49381,2.475 -1.84002,11.025 -2.99158,19 -5.38043,37.26164 -5.82921,39.37317 -14.45235,68 -8.75663,29.06998 -11.76379,38.67681 -18.46835,59 -2.0866,6.325 -9.75201,30.5894 -17.03425,53.92089 -7.28223,23.33148 -15.70569,48.98148 -18.71878,57 -4.464,11.87967 -5.38908,15.38021 -4.99616,18.90568 0.32144,2.88419 -0.17146,6.05129 -1.47851,9.5 -1.07839,2.84539 -2.37022,6.52343 -2.87074,8.17343 -0.50053,1.65 -1.30663,3.9 -1.79134,5 -0.48471,1.1 -1.87822,4.7 -3.09668,8 -1.21845,3.3 -2.85364,7.6875 -3.63375,9.75 -0.7801,2.0625 -2.04264,5.4375 -2.80564,7.5 -0.76299,2.0625 -2.0561,5.55 -2.87358,7.75 -0.81747,2.2 -2.47994,6.7 -3.69436,10 -2.34064,6.3603 -4.13458,11.1315 -6.4859,17.25 -6.81607,17.73645 -11.38434,33.56243 -22.57686,78.21353 -7.10514,28.34506 -15.55551,61.43782 -18.7786,73.53947 l -5.86016,22.003 -13.96698,23.46925 -13.96699,23.46925 -16.48932,12.20184 -16.48933,12.20184 -31.07187,7.03869 c -45.06369,10.20825 -86.40248,22.13846 -90.92323,26.24008 -2.00256,1.8169 -7.75129,1.87305 -191.75,1.87305 L 0,826 0,413 z"
       id="path3382"
       style="fill:url(#linearGradient3426);fill-opacity:1" />
  </g>
</svg>
